<mxfile host="app.diagrams.net" modified="2021-06-03T22:38:29.727Z" agent="5.0 (Windows NT 10.0; Win64; x64) AppleWebKit/537.36 (KHTML, like Gecko) Chrome/90.0.4430.212 Safari/537.36" etag="tzK4F2kLAFWGB0NPW8H0" version="14.7.4" type="github">
  <diagram id="JOvm8MCQJ4ccbjPxpsr4" name="Page-1">
    <mxGraphModel dx="599" dy="310" grid="1" gridSize="10" guides="1" tooltips="1" connect="1" arrows="1" fold="1" page="1" pageScale="1" pageWidth="827" pageHeight="1169" math="0" shadow="0">
      <root>
        <mxCell id="0" />
        <mxCell id="1" parent="0" />
        <mxCell id="ZS8tEYhq-2Os1BeV-gBH-1" value="" style="rounded=1;whiteSpace=wrap;html=1;" vertex="1" parent="1">
          <mxGeometry x="350" y="340" width="130" height="60" as="geometry" />
        </mxCell>
        <mxCell id="ZS8tEYhq-2Os1BeV-gBH-2" value="Vehicle Controller&amp;nbsp;&amp;nbsp;" style="text;html=1;strokeColor=none;fillColor=none;align=center;verticalAlign=middle;whiteSpace=wrap;rounded=0;" vertex="1" parent="1">
          <mxGeometry x="365" y="360" width="110" height="20" as="geometry" />
        </mxCell>
        <mxCell id="ZS8tEYhq-2Os1BeV-gBH-3" value="" style="rounded=1;whiteSpace=wrap;html=1;" vertex="1" parent="1">
          <mxGeometry x="360" y="510" width="120" height="60" as="geometry" />
        </mxCell>
        <mxCell id="ZS8tEYhq-2Os1BeV-gBH-4" value="Steering Wheel" style="text;html=1;strokeColor=none;fillColor=none;align=center;verticalAlign=middle;whiteSpace=wrap;rounded=0;" vertex="1" parent="1">
          <mxGeometry x="370" y="520" width="100" height="40" as="geometry" />
        </mxCell>
        <mxCell id="ZS8tEYhq-2Os1BeV-gBH-5" value="" style="endArrow=classic;html=1;entryX=0.667;entryY=0.017;entryDx=0;entryDy=0;entryPerimeter=0;" edge="1" parent="1" target="ZS8tEYhq-2Os1BeV-gBH-3">
          <mxGeometry width="50" height="50" relative="1" as="geometry">
            <mxPoint x="440" y="401" as="sourcePoint" />
            <mxPoint x="480" y="450" as="targetPoint" />
          </mxGeometry>
        </mxCell>
        <mxCell id="ZS8tEYhq-2Os1BeV-gBH-6" value="" style="endArrow=classic;html=1;entryX=0.308;entryY=0.994;entryDx=0;entryDy=0;entryPerimeter=0;" edge="1" parent="1" target="ZS8tEYhq-2Os1BeV-gBH-1">
          <mxGeometry width="50" height="50" relative="1" as="geometry">
            <mxPoint x="390" y="509" as="sourcePoint" />
            <mxPoint x="450" y="470" as="targetPoint" />
          </mxGeometry>
        </mxCell>
        <mxCell id="ZS8tEYhq-2Os1BeV-gBH-7" value="" style="rounded=1;whiteSpace=wrap;html=1;" vertex="1" parent="1">
          <mxGeometry x="590" y="340" width="120" height="60" as="geometry" />
        </mxCell>
        <mxCell id="ZS8tEYhq-2Os1BeV-gBH-8" value="Throttle" style="text;html=1;strokeColor=none;fillColor=none;align=center;verticalAlign=middle;whiteSpace=wrap;rounded=0;" vertex="1" parent="1">
          <mxGeometry x="610" y="355" width="80" height="30" as="geometry" />
        </mxCell>
        <mxCell id="ZS8tEYhq-2Os1BeV-gBH-9" value="" style="endArrow=classic;html=1;exitX=0;exitY=0.5;exitDx=0;exitDy=0;" edge="1" parent="1" source="ZS8tEYhq-2Os1BeV-gBH-7">
          <mxGeometry width="50" height="50" relative="1" as="geometry">
            <mxPoint x="490" y="430" as="sourcePoint" />
            <mxPoint x="480" y="370" as="targetPoint" />
          </mxGeometry>
        </mxCell>
        <mxCell id="ZS8tEYhq-2Os1BeV-gBH-10" value="Acceleration" style="text;html=1;strokeColor=none;fillColor=none;align=center;verticalAlign=middle;whiteSpace=wrap;rounded=0;" vertex="1" parent="1">
          <mxGeometry x="530" y="340" width="40" height="20" as="geometry" />
        </mxCell>
        <mxCell id="ZS8tEYhq-2Os1BeV-gBH-11" value="Vehicle Configurations" style="text;html=1;strokeColor=none;fillColor=none;align=center;verticalAlign=middle;whiteSpace=wrap;rounded=0;" vertex="1" parent="1">
          <mxGeometry x="290" y="420" width="110" height="20" as="geometry" />
        </mxCell>
        <mxCell id="ZS8tEYhq-2Os1BeV-gBH-12" value="Vehicle&lt;br&gt;State" style="text;html=1;strokeColor=none;fillColor=none;align=center;verticalAlign=middle;whiteSpace=wrap;rounded=0;" vertex="1" parent="1">
          <mxGeometry x="450" y="420" width="40" height="20" as="geometry" />
        </mxCell>
        <mxCell id="ZS8tEYhq-2Os1BeV-gBH-15" value="" style="rounded=1;whiteSpace=wrap;html=1;" vertex="1" parent="1">
          <mxGeometry x="120" y="340" width="120" height="60" as="geometry" />
        </mxCell>
        <mxCell id="ZS8tEYhq-2Os1BeV-gBH-16" value="Driver&lt;br&gt;(Inverter)" style="text;html=1;strokeColor=none;fillColor=none;align=center;verticalAlign=middle;whiteSpace=wrap;rounded=0;" vertex="1" parent="1">
          <mxGeometry x="160" y="360" width="40" height="20" as="geometry" />
        </mxCell>
        <mxCell id="ZS8tEYhq-2Os1BeV-gBH-17" value="" style="endArrow=classic;html=1;entryX=1;entryY=0.5;entryDx=0;entryDy=0;exitX=0;exitY=0.5;exitDx=0;exitDy=0;" edge="1" parent="1" source="ZS8tEYhq-2Os1BeV-gBH-1" target="ZS8tEYhq-2Os1BeV-gBH-15">
          <mxGeometry width="50" height="50" relative="1" as="geometry">
            <mxPoint x="430" y="330" as="sourcePoint" />
            <mxPoint x="480" y="280" as="targetPoint" />
          </mxGeometry>
        </mxCell>
        <mxCell id="ZS8tEYhq-2Os1BeV-gBH-19" value="Torque&lt;br&gt;Request" style="text;html=1;strokeColor=none;fillColor=none;align=center;verticalAlign=middle;whiteSpace=wrap;rounded=0;" vertex="1" parent="1">
          <mxGeometry x="290" y="340" width="40" height="20" as="geometry" />
        </mxCell>
      </root>
    </mxGraphModel>
  </diagram>
</mxfile>
